# xmcd
#
# Track frame offsets: 
#        183
#        16713
#        33983
#        76818
#        92778
#        112113
#        127095
#        141985
#        158235
#        175215
#        193763
#
# Disc length: 2762 seconds
#
# Revision: 5
# Processed by: cddbd v1.5.2PL0 Copyright (c) Steve Scherf et al.
# Submitted via: ExactAudioCopy v0.99pb4
#
DISCID=8f0ac80b
DTITLE=Various Artist - Hansa News Edition (1992) (2, 3)
DYEAR=1992
DGENRE=Pop
TTITLE0=Bonnie Tyler - Where were you (Radio Mix)
TTITLE1=Blue System - Romeo and Juliet
TTITLE2=The Twins - Best of ... Mega Mix
TTITLE3=The Catch feat. Don Snow - A man's gotta do (what a man's gott
TTITLE3=a do) (Radio Mix)
TTITLE4=Thierry Mutin - America
TTITLE5=Die Prinzen - Mann im Mond (Radio Version)
TTITLE6=Roland Kaiser - Lebenslaenglich Du
TTITLE7=Die Wildecker Herzbuben - Ach, ist das schoen
TTITLE8=Andi Warda - Was is des
TTITLE9=Marianne Rosenberg - Lieder der Nacht (Radio Version)
TTITLE10=Cliff Carpenter and Sein Orchester - Girls, girls, girls
EXTD=
EXTT0=
EXTT1=
EXTT2=
EXTT3=
EXTT4=
EXTT5=
EXTT6=
EXTT7=
EXTT8=
EXTT9=
EXTT10=
PLAYORDER=
